<?xml version="1.0" encoding="UTF-8" standalone="no"?>
<!-- Created with Inkscape (http://www.inkscape.org/) -->

<svg
   xmlns:dc="http://purl.org/dc/elements/1.1/"
   xmlns:cc="http://creativecommons.org/ns#"
   xmlns:rdf="http://www.w3.org/1999/02/22-rdf-syntax-ns#"
   xmlns:svg="http://www.w3.org/2000/svg"
   xmlns="http://www.w3.org/2000/svg"
   xmlns:sodipodi="http://sodipodi.sourceforge.net/DTD/sodipodi-0.dtd"
   xmlns:inkscape="http://www.inkscape.org/namespaces/inkscape"
   width="300mm"
   height="300mm"
   viewBox="0 0 300 300"
   version="1.1"
   id="svg8"
   inkscape:version="0.92.2 5c3e80d, 2017-08-06"
   sodipodi:docname="icon.svg"
   inkscape:export-filename="/Users/jonahmajumder/Documents/WebDev/tabext/icon16.png"
   inkscape:export-xdpi="1.3546667"
   inkscape:export-ydpi="1.3546667">
  <defs
     id="defs2" />
  <sodipodi:namedview
     id="base"
     pagecolor="#ffffff"
     bordercolor="#666666"
     borderopacity="1.0"
     inkscape:pageopacity="0.0"
     inkscape:pageshadow="2"
     inkscape:zoom="0.24748737"
     inkscape:cx="-159.86513"
     inkscape:cy="126.58173"
     inkscape:document-units="mm"
     inkscape:current-layer="layer1"
     showgrid="false"
     inkscape:window-width="1440"
     inkscape:window-height="789"
     inkscape:window-x="0"
     inkscape:window-y="1"
     inkscape:window-maximized="1" />
  <metadata
     id="metadata5">
    <rdf:RDF>
      <cc:Work
         rdf:about="">
        <dc:format>image/svg+xml</dc:format>
        <dc:type
           rdf:resource="http://purl.org/dc/dcmitype/StillImage" />
        <dc:title></dc:title>
      </cc:Work>
    </rdf:RDF>
  </metadata>
  <g
     inkscape:label="Layer 1"
     inkscape:groupmode="layer"
     id="layer1"
     transform="translate(0,3)">
    <path
       style="fill:#000000;stroke-width:0.33481288"
       d="M 14.56436,271.75304 C 7.605007,270.0745 2.955805,265.89504 0.84086,259.41606 L 0,256.84016 V 145.88627 C 0,36.016359 0.0064,34.908001 0.669125,32.435485 1.617332,28.897138 2.258071,27.381977 3.855649,24.900316 6.3099,21.087908 10.613468,17.538292 14.731766,15.92961 c 4.570158,-1.785186 4.214186,-1.768734 35.997099,-1.663616 32.510285,0.107539 30.744635,-0.005 35.461015,2.257096 4.30218,2.063313 8.31127,5.859133 10.50854,9.949546 0.96372,1.794069 2.40464,5.755388 2.41131,6.629146 0.0118,1.541692 0.47304,1.678668 2.57831,0.765641 4.6922,-2.034951 3.553,-1.980063 38.76594,-1.867749 l 32.14203,0.10252 2.17417,0.78642 c 3.45574,1.249976 6.96776,3.38044 8.85359,5.370782 0.54086,0.570828 1.19473,1.037868 1.45301,1.037868 0.25829,0 1.27356,-0.715662 2.25612,-1.590359 2.34752,-2.089786 4.90027,-3.60856 7.91825,-4.711016 l 2.45583,-0.8971 h 33.14647 33.14648 l 2.45583,0.8971 c 3.66601,1.339176 5.95402,2.825385 8.92779,5.799157 2.99363,2.993609 4.48574,5.300429 5.77477,8.927813 0.8247,2.320657 0.88329,2.91652 1.06453,10.826153 l 0.1918,8.370315 2.15927,0.238125 c 6.79965,0.749844 12.79432,5.941972 14.85148,12.863168 0.28489,0.95858 0.40975,24.1171 0.4798,89.01663 l 0.0948,87.72097 -0.83785,2.60622 c -1.82445,5.67532 -5.67305,9.6699 -11.26095,11.68808 l -2.13831,0.77228 -55.42358,0.0876 L 127.29072,272 c -4.14604,-3.98567 0.85627,-8.86147 4.93189,-11.5588 l 97.09976,-0.16741 c 31.16912,-0.0537 55.05493,-0.29675 55.43604,-0.46761 1.12325,-0.50354 2.53992,-1.9816 3.04075,-3.17251 0.4057,-0.96477 0.47478,-13.68386 0.47478,-87.40432 V 82.95387 l -0.95927,-1.51264 c -0.5774,-0.91045 -1.47709,-1.76959 -2.25999,-2.15812 -1.273,-0.63174 -3.34868,-0.64907 -97.41808,-0.8129 L 91.51923,78.30279 90.33689,77.40096 C 87.98812,75.60943 88.05587,76.2461 88.05587,55.964927 88.05587,37.078758 87.9377,35.105998 86.64141,32.348218 85.81794,30.59643 83.41721,28.116364 81.73802,27.282825 78.92367,25.885791 78.66721,25.875536 49.050138,25.975722 L 20.591046,26.072 18.709395,26.954289 c -2.646816,1.241064 -4.461917,3.011747 -5.732099,5.591829 l -1.091383,2.2169 -0.08726,110.327882 c -0.06613,83.62624 0.0077,110.57101 0.304505,111.33233 0.492255,1.26213 1.869953,2.79539 2.963468,3.29814 0.614887,0.28269 15.371609,0.48287 55.603451,0.55223 l 97.099753,0.16741 c 4.4355,2.84372 3.92061,9.02674 0.77314,10.889 -1.27807,0.65203 -44.46145,0.66146 -98.469995,0.62323 -30.161416,-0.0214 -55.140272,-0.11157 -55.508567,-0.20036 z M 179.39003,61.227513 c 0.0538,-3.130499 -0.0643,-6.63719 -0.26234,-7.792646 -0.86515,-5.047294 -4.62757,-8.853272 -9.67439,-9.786393 -2.54041,-0.469701 -57.5515,-0.448237 -60.10309,0.02344 -4.90403,0.906559 -8.66064,4.691468 -9.57734,9.649484 -0.37139,2.008644 -0.46129,13.191077 -0.10889,13.543468 0.12352,0.123568 18.09042,0.1864 39.92644,0.139514 l 39.70185,-0.08504 z m 91.4039,0 c 0.0538,-3.130499 -0.0643,-6.63719 -0.26234,-7.792646 -0.86515,-5.047294 -4.62757,-8.853272 -9.67438,-9.786393 -2.39411,-0.442656 -57.07945,-0.445549 -59.80211,-0.003 -2.59959,0.422389 -4.65308,1.476884 -6.52883,3.352654 -1.87577,1.875769 -2.93026,3.92926 -3.35267,6.528852 -0.36735,2.260906 -0.45241,12.99138 -0.10574,13.338078 0.12353,0.123569 18.09041,0.18621 39.92641,0.139514 l 39.7019,-0.0852 z M 38.670885,60.502572 c -1.476297,-0.780028 -2.172025,-1.470783 -2.881537,-2.860958 -1.440566,-2.82254 -0.242445,-6.121072 2.784495,-7.665961 1.136009,-0.579793 2.088087,-0.633997 11.136177,-0.633997 9.304933,0 9.978464,0.04104 11.313273,0.689232 0.780615,0.37908 1.795968,1.164051 2.256337,1.744385 0.718463,0.905688 0.837031,1.39826 0.837031,3.477334 0,2.313258 -0.05269,2.476883 -1.171845,3.638794 -2.046459,2.12464 -2.328643,2.170194 -13.349699,2.155294 -8.39069,-0.01141 -10.074624,-0.09529 -10.924232,-0.544123 z"
       id="path75"
       inkscape:connector-curvature="0"
       sodipodi:nodetypes="cccscsssccccscccscscccsscscccscccccccsccscccsccscsscsccsccscccccccscsccccccsccccccccccscssccc" />
    <path
       style="fill:#000000;stroke-width:0.2666634"
       d="m 99.937943,226.59915 c -4.568947,-1.23047 -8.337819,-5.02745 -9.52878,-9.59987 -0.359388,-1.37977 -0.408312,-7.36961 -0.408312,-49.9883 0,-52.80249 -0.08701,-49.73333 1.498701,-52.8626 0.952096,-1.87886 3.525475,-4.49764 5.403105,-5.4984 3.255063,-1.73494 0.562747,-1.63826 45.621253,-1.63826 h 40.94447 l 13.26549,13.26751 13.2655,13.26749 v 40.94245 c 0,44.62897 0.0779,42.27304 -1.50186,45.39067 -0.90739,1.79064 -3.8379,4.72114 -5.62853,5.62854 -3.13862,1.59045 -0.033,1.50346 -52.99156,1.48431 -40.89389,-0.0148 -48.76338,-0.0768 -49.939477,-0.39354 z M 156.15236,212.6183 c 3.0841,-1.03327 5.13381,-2.26215 7.50652,-4.50043 2.44956,-2.31081 4.20281,-5.04159 5.29464,-8.24674 0.82815,-2.43106 0.88368,-2.8198 0.88505,-6.19381 0.001,-3.36779 -0.0544,-3.76241 -0.86436,-6.1188 -1.07847,-3.13758 -2.30521,-5.17781 -4.53355,-7.53997 -2.31079,-2.44955 -5.04158,-4.20281 -8.24674,-5.29464 -2.43248,-0.82863 -2.8178,-0.88359 -6.19381,-0.88359 -3.376,0 -3.76132,0.055 -6.19381,0.88359 -3.20514,1.09183 -5.93593,2.84509 -8.24673,5.29464 -2.22835,2.36216 -3.45507,4.40239 -4.53356,7.53997 -0.8095,2.355 -0.86581,2.753 -0.86581,6.1188 0,3.36579 0.0563,3.76379 0.86581,6.1188 1.07699,3.1332 2.30503,5.17761 4.52147,7.52714 2.16446,2.29445 4.75379,4.027 7.53582,5.04232 2.94714,1.07557 4.43327,1.30291 7.75025,1.18561 2.28564,-0.0809 3.31388,-0.26118 5.31881,-0.93289 z m 13.8475,-78.94023 v -13.33318 h -33.33291 -33.33293 v 13.33318 13.33316 h 33.33293 33.33291 z"
       id="path142"
       inkscape:connector-curvature="0" />
  </g>
</svg>
